HIERARCHY
ROOT Elbow
{
	OFFSET	0.00	0.00	0.00
	CHANNELS 6 Xposition Yposition Zposition Zrotation Xrotation Yrotation
	JOINT L_Wrist
	{
		OFFSET	 0.208349	 0.000000	 0.000000
		CHANNELS 3 Zrotation Xrotation Yrotation
		JOINT L_index_Proximal
		{
			OFFSET	 0.093499	 0.010637	-0.002084
			CHANNELS 3 Zrotation Xrotation Yrotation
			JOINT L_index_b
			{
				OFFSET	 0.033152	 0.000000	 0.000000
				CHANNELS 3 Zrotation Xrotation Yrotation
				JOINT L_index_c
				{
					OFFSET	 0.018651	 0.000000	 0.000000
					CHANNELS 3 Zrotation Xrotation Yrotation
					End Site
					{
						OFFSET	 0.018651	 0.000000	 0.000000
					}
				}
			}
		}
		JOINT L_middle_Proximal
		{
			OFFSET	 0.090632	-0.006115	-0.003750
			CHANNELS 3 Zrotation Xrotation Yrotation
			JOINT L_middle_b
			{
				OFFSET	 0.037194	 0.000000	 0.000000
				CHANNELS 3 Zrotation Xrotation Yrotation
				JOINT L_middle_c
				{
					OFFSET	 0.021943	 0.000000	 0.000000
					CHANNELS 3 Zrotation Xrotation Yrotation
					End Site
					{
						OFFSET	 0.021943	 0.000000	 0.000000
					}
				}
			}
		}
		JOINT L_pinky_Proximal
		{
			OFFSET	 0.074015	-0.035449	-0.000417
			CHANNELS 3 Zrotation Xrotation Yrotation
			JOINT L_pinky_b
			{
				OFFSET	 0.027285	 0.000000	 0.000000
				CHANNELS 3 Zrotation Xrotation Yrotation
				JOINT L_pinky_c
				{
					OFFSET	 0.015093	 0.000000	 0.000000
					CHANNELS 3 Zrotation Xrotation Yrotation
					End Site
					{
						OFFSET	 0.015093	 0.000000	 0.000000
					}
				}
			}
		}
		JOINT L_ring_Proximal
		{
			OFFSET	 0.082801	-0.021859	-0.003750
			CHANNELS 3 Zrotation Xrotation Yrotation
			JOINT L_ring_b
			{
				OFFSET	 0.034478	 0.000000	 0.000000
				CHANNELS 3 Zrotation Xrotation Yrotation
				JOINT L_ring_c
				{
					OFFSET	 0.021377	 0.000000	 0.000000
					CHANNELS 3 Zrotation Xrotation Yrotation
					End Site
					{
						OFFSET	 0.021377	 0.000000	 0.000000
					}
				}
			}
		}
		JOINT L_thumb_Proximal
		{
			OFFSET	 0.030306	 0.018528	 0.004584
			CHANNELS 3 Zrotation Xrotation Yrotation
			JOINT L_thumb_a
			{
				OFFSET	 0.038520	 0.000000	 0.000000
				CHANNELS 3 Zrotation Xrotation Yrotation
				JOINT L_thumb_b
				{
					OFFSET	 0.026310	 0.000000	 0.000000
					CHANNELS 3 Zrotation Xrotation Yrotation
					End Site
					{
						OFFSET	 0.026310	 0.000000	 0.000000
					}
				}
			}
		}
	}
}
MOTION
Frames:    17
Frame Time: 0.01666667
-0.183574	-0.228818	 0.692142	 46.546630	 55.923970	-155.640300	 5.108392	 5.417241	 32.535060	 5.886106	-3.590758	-51.429700	 3.554520	-1.128657	-35.222640	-2.091930	 0.367122	-19.905590	-7.799759	-9.446134	-45.737150	 0.921257	-0.436976	-50.751210	-0.486704	 0.179142	-40.413410	-29.599910	-18.387050	-56.117880	-0.377346	 0.223050	-61.173820	 1.752123	-1.035397	-61.157890	-18.811200	-11.424870	-61.919700	-0.745407	 0.486477	-66.258770	 1.450962	-0.698571	-51.415860	 65.421000	 43.198490	-65.007110	 2.231555	-0.207919	-10.645040	-3.534423	 0.695775	-22.266460
-0.183686	-0.228819	 0.692082	 46.489410	 55.971890	-155.591600	 5.107144	 5.411987	 32.499390	 5.863203	-3.577875	-51.434710	 3.564509	-1.131440	-35.211120	-2.095451	 0.367564	-19.895760	-7.795887	-9.447671	-45.715490	 0.918291	-0.435177	-50.711830	-0.506537	 0.186242	-40.374580	-29.607040	-18.383500	-56.096620	-0.361735	 0.213733	-61.149540	 1.765630	-1.042563	-61.118890	-18.813230	-11.423460	-61.912990	-0.743792	 0.484979	-66.210080	 1.442712	-0.694383	-51.401670	 65.398220	 43.202750	-65.026030	 2.219377	-0.206633	-10.636630	-3.544672	 0.696761	-22.234300
-0.183674	-0.228823	 0.692051	 46.453270	 56.013100	-155.563000	 5.113833	 5.410120	 32.486720	 5.831412	-3.560642	-51.450640	 3.581310	-1.136055	-35.190210	-2.098347	 0.367842	-19.883730	-7.801527	-9.444444	-45.696940	 0.920344	-0.435837	-50.679330	-0.504090	 0.185159	-40.338120	-29.610450	-18.382220	-56.070530	-0.371325	 0.219308	-61.130530	 1.767390	-1.042890	-61.084530	-18.824780	-11.415460	-61.891470	-0.749708	 0.488510	-66.176540	 1.446137	-0.695344	-51.357570	 65.341150	 43.223560	-65.053850	 2.216411	-0.206328	-10.635290	-3.519277	 0.688882	-22.144030
-0.183650	-0.228829	 0.691963	 46.384320	 56.084870	-155.503500	 5.120865	 5.409721	 32.484010	 5.808893	-3.551407	-51.503530	 3.590674	-1.139015	-35.189820	-2.107431	 0.369787	-19.902330	-7.783927	-9.454249	-45.741810	 0.951280	-0.449842	-50.616690	-0.517623	 0.189647	-40.242650	-29.609100	-18.382770	-56.079010	-0.380289	 0.224405	-61.090130	 1.753095	-1.033443	-61.035850	-18.846860	-11.400130	-61.894530	-0.751044	 0.488786	-66.112330	 1.433276	-0.688660	-51.325110	 65.218240	 43.275560	-65.099810	 2.227091	-0.206876	-10.612380	-3.518842	 0.684760	-22.017340
-0.183596	-0.228795	 0.691931	 46.368190	 56.105080	-155.486200	 5.121441	 5.408725	 32.477220	 5.804366	-3.550056	-51.521360	 3.560000	-1.132429	-35.281890	-2.140335	 0.377605	-20.008140	-7.777384	-9.457675	-45.747690	 0.953211	-0.450682	-50.609520	-0.535895	 0.196394	-40.252270	-29.598300	-18.389390	-56.064190	-0.381347	 0.224971	-61.073470	 1.752035	-1.032666	-61.028310	-18.841450	-11.403890	-61.876090	-0.743963	 0.483938	-66.086630	 1.420880	-0.682569	-51.316100	 65.169030	 43.299330	-65.112470	 2.218271	-0.206031	-10.611410	-3.557456	 0.693242	-22.047410
-0.183437	-0.228712	 0.691809	 46.297210	 56.197840	-155.417600	 5.127330	 5.404765	 32.450430	 5.743878	-3.518898	-51.576030	 3.468664	-1.109707	-35.472140	-2.179919	 0.386016	-20.081300	-7.793462	-9.448954	-45.719090	 0.960702	-0.453905	-50.577670	-0.528812	 0.193858	-40.265820	-29.610840	-18.382360	-56.056370	-0.381080	 0.224867	-61.092120	 1.743151	-1.027715	-61.042120	-18.855090	-11.394460	-61.819010	-0.763215	 0.496480	-66.088700	 1.395027	-0.670159	-51.317310	 65.082570	 43.369060	-65.080120	 2.241127	-0.207810	-10.593960	-3.565961	 0.694848	-22.045600
-0.183388	-0.228669	 0.691761	 46.283380	 56.215920	-155.399000	 5.123656	 5.403503	 32.441830	 5.735791	-3.517436	-51.621600	 3.450270	-1.105341	-35.517990	-2.178169	 0.385438	-20.067440	-7.790370	-9.450414	-45.712890	 0.964982	-0.456090	-50.593620	-0.543814	 0.199479	-40.288200	-29.606250	-18.385130	-56.051820	-0.373952	 0.220673	-61.087240	 1.746311	-1.029499	-61.038340	-18.850460	-11.397690	-61.820920	-0.756914	 0.492437	-66.093960	 1.395287	-0.670369	-51.321900	 65.050700	 43.393620	-65.070370	 2.257703	-0.208941	-10.573350	-3.559920	 0.691176	-21.968460
-0.183226	-0.228604	 0.691593	 46.219620	 56.302330	-155.334500	 5.133248	 5.405129	 32.452880	 5.722328	-3.516608	-51.720540	 3.469903	-1.111209	-35.505360	-2.187209	 0.386725	-20.051490	-7.794961	-9.448508	-45.735210	 0.993038	-0.469838	-50.639350	-0.515188	 0.189309	-40.352830	-29.594880	-18.391100	-56.074660	-0.353456	 0.208611	-61.093580	 1.778407	-1.048905	-61.061650	-18.835660	-11.407930	-61.834920	-0.708118	 0.461090	-66.140190	 1.428974	-0.686636	-51.327750	 65.058310	 43.399540	-65.049610	 2.231692	-0.206847	-10.589470	-3.548965	 0.690955	-22.027740
-0.183254	-0.228546	 0.691579	 46.224270	 56.305660	-155.333400	 5.133251	 5.405126	 32.452880	 5.722322	-3.516616	-51.720540	 3.469903	-1.111206	-35.505360	-2.187219	 0.386726	-20.051510	-7.794963	-9.448509	-45.735210	 0.993037	-0.469841	-50.639350	-0.515192	 0.189316	-40.352850	-29.594870	-18.391100	-56.074670	-0.353446	 0.208609	-61.093580	 1.778400	-1.048914	-61.061670	-18.835650	-11.407930	-61.834920	-0.708118	 0.461087	-66.140200	 1.428978	-0.686636	-51.327740	 65.058300	 43.399560	-65.049610	 2.231698	-0.206854	-10.589470	-3.548963	 0.690960	-22.027740
-0.183201	-0.228476	 0.691388	 46.118640	 56.447640	-155.234600	 5.164180	 5.410324	 32.488170	 5.717559	-3.523486	-51.857220	 3.456164	-1.104453	-35.434560	-2.194625	 0.386405	-19.968550	-7.804934	-9.444606	-45.794410	 0.981658	-0.464579	-50.652370	-0.498435	 0.183135	-40.347680	-29.605550	-18.384130	-56.104200	-0.350286	 0.206735	-61.095150	 1.795045	-1.059732	-61.110110	-18.840730	-11.404380	-61.878750	-0.718480	 0.468366	-66.199200	 1.430081	-0.687119	-51.324450	 65.092320	 43.380950	-65.045270	 2.195226	-0.203910	-10.612090	-3.563291	 0.694118	-22.038980
-0.183155	-0.228481	 0.691320	 46.041680	 56.552470	-155.164200	 5.184968	 5.413056	 32.506610	 5.685602	-3.510956	-51.943840	 3.465764	-1.104107	-35.331950	-2.213473	 0.386952	-19.829770	-7.803942	-9.444600	-45.767350	 1.018436	-0.480648	-50.528530	-0.448644	 0.164519	-40.274930	-29.615440	-18.378170	-56.114610	-0.341157	 0.201355	-61.102630	 1.830918	-1.080695	-61.099720	-18.853270	-11.395670	-61.893680	-0.718011	 0.468268	-66.222340	 1.436484	-0.689927	-51.306660	 65.104240	 43.351510	-65.088440	 2.173009	-0.202262	-10.634000	-3.583957	 0.697311	-22.013610
-0.183102	-0.228612	 0.691302	 45.965220	 56.631420	-155.088600	 5.244177	 5.413181	 32.507510	 5.657793	-3.497502	-51.983570	 3.437193	-1.090530	-35.196860	-2.232877	 0.388602	-19.742850	-7.776011	-9.457462	-45.701530	 1.046376	-0.492168	-50.379770	-0.389573	 0.142363	-40.148010	-29.617300	-18.377610	-56.094580	-0.312598	 0.184417	-61.074680	 1.847943	-1.090825	-61.103560	-18.863200	-11.388750	-61.902700	-0.728467	 0.474859	-66.197640	 1.450285	-0.696171	-51.282320	 65.095650	 43.359120	-65.083850	 2.140538	-0.199569	-10.652430	-3.587342	 0.696998	-21.983960
-0.183106	-0.228650	 0.691294	 45.952670	 56.643750	-155.073400	 5.272266	 5.413811	 32.511990	 5.643402	-3.489799	-51.994080	 3.430739	-1.087556	-35.168630	-2.244492	 0.390062	-19.715380	-7.774908	-9.456344	-45.617690	 1.064058	-0.499535	-50.294740	-0.374272	 0.136465	-40.064690	-29.614560	-18.379800	-56.070560	-0.313275	 0.184794	-61.073920	 1.845880	-1.089391	-61.093390	-18.872020	-11.382630	-61.900050	-0.740774	 0.482977	-66.207510	 1.453452	-0.697359	-51.261040	 65.079740	 43.367850	-65.085950	 2.133407	-0.198848	-10.648350	-3.576518	 0.693730	-21.947430
-0.183126	-0.228700	 0.691265	 45.888430	 56.687450	-155.020200	 5.332820	 5.416028	 32.527020	 5.664736	-3.504104	-52.020240	 3.449415	-1.094652	-35.203910	-2.240676	 0.389774	-19.733960	-7.765958	-9.458853	-45.514940	 1.052665	-0.493249	-50.211960	-0.386077	 0.140450	-39.981820	-29.604660	-18.387120	-56.008870	-0.315265	 0.185997	-61.079010	 1.825106	-1.076331	-61.056270	-18.868640	-11.385030	-61.838310	-0.735921	 0.479847	-66.210100	 1.455881	-0.697649	-51.205330	 65.028530	 43.379560	-65.124440	 2.136353	-0.199056	-10.645550	-3.546767	 0.685551	-21.873000
-0.183058	-0.228763	 0.691235	 45.864550	 56.709050	-154.998900	 5.350738	 5.416433	 32.529560	 5.670557	-3.506948	-52.011770	 3.435111	-1.092128	-35.265130	-2.230117	 0.388299	-19.751710	-7.765008	-9.458311	-45.461540	 1.058661	-0.496065	-50.213750	-0.398668	 0.144901	-39.949380	-29.603440	-18.388030	-56.002450	-0.327400	 0.193194	-61.086720	 1.815940	-1.070938	-61.056610	-18.869510	-11.384500	-61.810870	-0.731925	 0.477204	-66.206450	 1.463407	-0.701228	-51.203530	 65.026470	 43.374370	-65.136970	 2.132396	-0.198834	-10.652980	-3.532453	 0.682578	-21.866580
-0.183169	-0.228785	 0.691164	 45.728870	 56.841940	-154.900100	 5.402606	 5.416625	 32.530770	 5.658514	-3.501982	-52.041310	 3.426420	-1.093360	-35.386460	-2.194867	 0.383241	-19.806860	-7.784734	-9.445357	-45.307260	 1.096403	-0.513171	-50.162190	-0.420878	 0.152736	-39.893020	-29.630140	-18.373210	-55.982200	-0.361123	 0.213051	-61.077600	 1.790612	-1.056140	-61.063470	-18.915460	-11.352750	-61.755720	-0.757887	 0.494099	-66.203440	 1.432425	-0.685799	-51.165100	 65.007100	 43.373520	-65.161840	 2.107706	-0.197583	-10.710070	-3.520368	 0.682273	-21.930170
-0.183160	-0.228814	 0.691148	 45.628710	 56.942600	-154.825600	 5.426960	 5.415894	 32.526040	 5.604183	-3.470647	-52.048290	 3.416347	-1.093043	-35.474770	-2.187299	 0.383232	-19.873410	-7.800608	-9.434929	-45.181630	 1.132697	-0.529384	-50.098760	-0.385737	 0.139705	-39.819750	-29.641280	-18.367950	-55.936680	-0.385754	 0.227565	-61.075840	 1.795765	-1.059045	-61.057360	-18.944380	-11.332750	-61.722330	-0.765687	 0.499226	-66.208330	 1.431201	-0.684679	-51.130910	 64.978460	 43.391570	-65.161070	 2.054285	-0.193928	-10.783210	-3.569873	 0.696896	-22.085060
